<?xml version="1.0" encoding="UTF-8" standalone="no"?>
<!-- Generator: Adobe Illustrator 13.0.0, SVG Export Plug-In . SVG Version: 6.00 Build 14948)  -->

<svg
   xmlns:dc="http://purl.org/dc/elements/1.1/"
   xmlns:cc="http://creativecommons.org/ns#"
   xmlns:rdf="http://www.w3.org/1999/02/22-rdf-syntax-ns#"
   xmlns:svg="http://www.w3.org/2000/svg"
   xmlns="http://www.w3.org/2000/svg"
   xmlns:sodipodi="http://sodipodi.sourceforge.net/DTD/sodipodi-0.dtd"
   xmlns:inkscape="http://www.inkscape.org/namespaces/inkscape"
   version="1.1"
   id="Layer_1"
   x="0px"
   y="0px"
   width="128px"
   height="128px"
   viewBox="0 0 128 128"
   enable-background="new 0 0 128 128"
   xml:space="preserve"
   inkscape:version="0.91 r13725"
   sodipodi:docname="joinus.svg"
   inkscape:export-filename="/home/trlinux/pisiM.png"
   inkscape:export-xdpi="90"
   inkscape:export-ydpi="90"><metadata
     id="metadata132"><rdf:RDF><cc:Work
         rdf:about=""><dc:format>image/svg+xml</dc:format><dc:type
           rdf:resource="http://purl.org/dc/dcmitype/StillImage" /><dc:title></dc:title></cc:Work></rdf:RDF></metadata><defs
     id="defs130"><linearGradient
       id="linearGradient3856"><stop
         style="stop-color:#0000ca;stop-opacity:0.47058824;"
         offset="0"
         id="stop3858" /><stop
         style="stop-color:#003192;stop-opacity:1;"
         offset="1"
         id="stop3860" /></linearGradient></defs><sodipodi:namedview
     pagecolor="#ffffff"
     bordercolor="#666666"
     borderopacity="1"
     objecttolerance="10"
     gridtolerance="10"
     guidetolerance="10"
     inkscape:pageopacity="0"
     inkscape:pageshadow="2"
     inkscape:window-width="1366"
     inkscape:window-height="715"
     id="namedview128"
     showgrid="false"
     inkscape:zoom="2.0567226"
     inkscape:cx="97.26335"
     inkscape:cy="28.087383"
     inkscape:window-x="0"
     inkscape:window-y="0"
     inkscape:window-maximized="1"
     inkscape:current-layer="g5" /><g
     id="g3"><g
       id="g5"><linearGradient
         id="SVGID_1_"
         gradientUnits="userSpaceOnUse"
         x1="-377.3911"
         y1="869.4395"
         x2="-377.3911"
         y2="830.8644"
         gradientTransform="matrix(1 0 0 1 412.6201 -813.9922)"><stop
           offset="0"
           style="stop-color:#EC008C"
           id="stop8" /><stop
           offset="1"
           style="stop-color:#C40075"
           id="stop10" /></linearGradient><linearGradient
         id="SVGID_2_"
         gradientUnits="userSpaceOnUse"
         x1="-319.5474"
         y1="869.4395"
         x2="-319.5474"
         y2="830.8644"
         gradientTransform="matrix(1 0 0 1 412.6201 -813.9922)"><stop
           offset="0"
           style="stop-color:#EC008C"
           id="stop15" /><stop
           offset="1"
           style="stop-color:#C40075"
           id="stop17" /></linearGradient><path
         d="m 86.888029,18.903734 c 0,0 7.882178,-11.4682131 31.065471,-13.2143301 0,0 12.2836,30.9349001 -3.92603,45.7512091 C 105.87318,38.215786 100.09811,28.85716 86.888029,18.903734 z"
         id="path19"
         style="fill:none;stroke:#000000;stroke-width:3.75262094;stroke-miterlimit:4;stroke-opacity:1;stroke-dasharray:none"
         inkscape:connector-curvature="0"
         sodipodi:nodetypes="cccc" /><radialGradient
         id="SVGID_3_"
         cx="-348.6191"
         cy="877.8975"
         r="50.2056"
         gradientTransform="matrix(1 0 0 1 412.6201 -813.9922)"
         gradientUnits="userSpaceOnUse"><stop
           offset="0"
           style="stop-color:#FAFAFA"
           id="stop22" /><stop
           offset="0.3109"
           style="stop-color:#F4F4F4"
           id="stop24" /><stop
           offset="0.7262"
           style="stop-color:#E3E3E3"
           id="stop26" /><stop
           offset="1"
           style="stop-color:#D4D4D4"
           id="stop28" /></radialGradient><path
         d="m 64.189386,119.37642 c 28.074578,0 51.843114,-18.45592 59.946804,-43.930493 C 116.0325,49.963391 92.263964,11.151003 64.189386,11.151003 c -28.066617,0 -51.839701,38.812388 -59.938836,64.294924 8.099135,25.475713 31.872219,43.930493 59.938836,43.930493 z"
         id="path30"
         style="fill:none;stroke:#000000;stroke-width:3.75262094;stroke-miterlimit:4;stroke-opacity:1;stroke-dasharray:none"
         inkscape:connector-curvature="0" /><g
         id="g32"
         transform="matrix(1.1373593,0,0,1.1373593,-8.5981987,-7.4198009)"
         style="stroke:#000000;stroke-opacity:1;fill:#000000;fill-opacity:1"><g
           id="g34"
           style="stroke:#000000;stroke-opacity:1;fill:#000000;fill-opacity:1"><g
             id="g36"
             style="stroke:#000000;stroke-opacity:1;fill:#000000;fill-opacity:1"><line
               x1="45.942001"
               y1="92.757004"
               x2="17.620001"
               y2="114.775"
               id="line38"
               style="fill:#000000;stroke:#000000;stroke-opacity:1;fill-opacity:1" /><linearGradient
               id="SVGID_4_"
               gradientUnits="userSpaceOnUse"
               x1="16.9111"
               y1="103.7656"
               x2="46.650902"
               y2="103.7656"><stop
                 offset="0"
                 style="stop-color:#EC008C"
                 id="stop41" /><stop
                 offset="1"
                 style="stop-color:#C4008C"
                 id="stop43" /></linearGradient><path
               d="m 45.558,92.045 -28.323,22.019 c -0.328,0.258 -0.423,0.778 -0.208,1.176 0.213,0.392 0.65,0.502 0.978,0.246 L 46.327,93.47 c 0.329,-0.256 0.423,-0.783 0.209,-1.178 -0.212,-0.391 -0.651,-0.502 -0.978,-0.247 z"
               id="path45"
               style="fill:#000000;fill-opacity:1;stroke:#000000;stroke-opacity:1"
               inkscape:connector-curvature="0" /></g><g
             id="g47"
             style="stroke:#000000;stroke-opacity:1;fill:#000000;fill-opacity:1"><line
               x1="52.318001"
               y1="93.602997"
               x2="23.992001"
               y2="115.626"
               id="line49"
               style="fill:#000000;stroke:#000000;stroke-opacity:1;fill-opacity:1" /><linearGradient
               id="SVGID_5_"
               gradientUnits="userSpaceOnUse"
               x1="23.283199"
               y1="104.6143"
               x2="53.023399"
               y2="104.6143"><stop
                 offset="0"
                 style="stop-color:#EC008C"
                 id="stop52" /><stop
                 offset="1"
                 style="stop-color:#C4008C"
                 id="stop54" /></linearGradient><path
               d="m 51.93,92.896 -28.325,22.016 c -0.329,0.253 -0.42,0.779 -0.206,1.174 0.211,0.395 0.651,0.506 0.978,0.253 L 52.701,94.313 c 0.328,-0.255 0.422,-0.779 0.208,-1.176 -0.215,-0.39 -0.65,-0.501 -0.979,-0.241 z"
               id="path56"
               style="fill:#000000;fill-opacity:1;stroke:#000000;stroke-opacity:1"
               inkscape:connector-curvature="0" /></g></g><g
           id="g58"
           style="stroke:#000000;stroke-opacity:1;fill:#000000;fill-opacity:1"><g
             id="g60"
             style="stroke:#000000;stroke-opacity:1;fill:#000000;fill-opacity:1"><line
               x1="82.056"
               y1="92.757004"
               x2="110.378"
               y2="114.775"
               id="line62"
               style="fill:#000000;stroke:#000000;stroke-opacity:1;fill-opacity:1" /><linearGradient
               id="SVGID_6_"
               gradientUnits="userSpaceOnUse"
               x1="81.346703"
               y1="103.7656"
               x2="111.0859"
               y2="103.7656"><stop
                 offset="0"
                 style="stop-color:#EC008C"
                 id="stop65" /><stop
                 offset="1"
                 style="stop-color:#C4008C"
                 id="stop67" /></linearGradient><path
               d="m 82.44,92.045 28.324,22.019 c 0.327,0.258 0.42,0.778 0.207,1.176 -0.211,0.392 -0.65,0.502 -0.979,0.246 L 81.671,93.47 c -0.328,-0.256 -0.424,-0.783 -0.209,-1.178 0.215,-0.391 0.654,-0.502 0.978,-0.247 z"
               id="path69"
               style="fill:#000000;fill-opacity:1;stroke:#000000;stroke-opacity:1"
               inkscape:connector-curvature="0" /></g><g
             id="g71"
             style="stroke:#000000;stroke-opacity:1;fill:#000000;fill-opacity:1"><line
               x1="75.682999"
               y1="93.602997"
               x2="104.005"
               y2="115.626"
               id="line73"
               style="fill:#000000;stroke:#000000;stroke-opacity:1;fill-opacity:1" /><linearGradient
               id="SVGID_7_"
               gradientUnits="userSpaceOnUse"
               x1="74.973602"
               y1="104.6133"
               x2="104.7119"
               y2="104.6133"><stop
                 offset="0"
                 style="stop-color:#EC008C"
                 id="stop76" /><stop
                 offset="1"
                 style="stop-color:#C4008C"
                 id="stop78" /></linearGradient><path
               d="m 76.067,92.896 28.323,22.016 c 0.325,0.253 0.42,0.779 0.208,1.174 -0.217,0.392 -0.652,0.506 -0.979,0.253 L 75.298,94.312 c -0.328,-0.255 -0.424,-0.779 -0.209,-1.176 0.215,-0.389 0.654,-0.5 0.978,-0.24 z"
               id="path80"
               style="fill:#000000;fill-opacity:1;stroke:#000000;stroke-opacity:1"
               inkscape:connector-curvature="0" /></g></g></g><line
         x1="64.192802"
         y1="100.70213"
         x2="64.192802"
         y2="109.98866"
         id="line86"
         style="fill:#000000;stroke:#000000;stroke-width:2.50174713;stroke-miterlimit:4;stroke-opacity:1;stroke-dasharray:none;fill-opacity:1" /><linearGradient
         id="SVGID_8_"
         gradientUnits="userSpaceOnUse"
         x1="-368.5898"
         y1="846.9727"
         x2="-354.2383"
         y2="846.9727"
         gradientTransform="matrix(1 0 0 1 412.6201 -813.9922)"><stop
           offset="0"
           style="stop-color:#9A9A9A"
           id="stop89" /><stop
           offset="1"
           style="stop-color:#DEDEDE"
           id="stop91" /></linearGradient><path
         d="m 46.377201,16.845762 c -1.833423,1.019073 -4.897469,3.279007 -4.897469,3.279007 L 57.803114,46.059974 51.894532,14.124062 c 0,0 -3.549699,1.628697 -5.517331,2.7217 z"
         id="path93"
         style="fill:none;stroke:#000000;stroke-width:2.50174713;stroke-miterlimit:4;stroke-opacity:1;stroke-dasharray:none"
         inkscape:connector-curvature="0" /><linearGradient
         id="SVGID_9_"
         gradientUnits="userSpaceOnUse"
         x1="-356.6719"
         y1="844.7158"
         x2="-347.2148"
         y2="844.7158"
         gradientTransform="matrix(1 0 0 1 412.6201 -813.9922)"><stop
           offset="0"
           style="stop-color:#9A9A9A"
           id="stop96" /><stop
           offset="1"
           style="stop-color:#DEDEDE"
           id="stop98" /></linearGradient><path
         d="m 61.200405,12.259349 c -3.234649,0.350306 -6.164487,1.311375 -6.164487,1.311375 l 8.127569,30.357258 2.628438,-31.714127 c -0.0011,0.0011 -1.35687,-0.303676 -4.59152,0.04549 z"
         id="path100"
         style="fill:none;stroke:#000000;stroke-width:2.50174713;stroke-miterlimit:4;stroke-dasharray:none;stroke-opacity:1"
         inkscape:connector-curvature="0" /><linearGradient
         id="SVGID_10_"
         gradientUnits="userSpaceOnUse"
         x1="-372.896"
         y1="885.7617"
         x2="-362.9971"
         y2="885.7617"
         gradientTransform="matrix(1 0 0 1 412.6201 -813.9922)"><stop
           offset="0"
           style="stop-color:#5F5D5C"
           id="stop103" /><stop
           offset="1"
           style="stop-color:#181500"
           id="stop105" /></linearGradient><circle
         cx="44.673"
         cy="71.771004"
         r="4.9510002"
         id="circle107"
         style="fill:#000000;fill-opacity:1;stroke:#000000;stroke-opacity:1"
         sodipodi:cx="44.673"
         sodipodi:cy="71.771004"
         sodipodi:rx="4.9510002"
         sodipodi:ry="4.9510002"
         transform="matrix(1.1373593,0,0,1.1373593,-8.5981987,-7.4198009)" /><linearGradient
         id="SVGID_11_"
         gradientUnits="userSpaceOnUse"
         x1="-334.3115"
         y1="885.7617"
         x2="-324.4092"
         y2="885.7617"
         gradientTransform="matrix(1 0 0 1 412.6201 -813.9922)"><stop
           offset="0"
           style="stop-color:#5F5D5C"
           id="stop110" /><stop
           offset="1"
           style="stop-color:#181500"
           id="stop112" /></linearGradient><circle
         cx="83.259003"
         cy="71.771004"
         r="4.9510002"
         id="circle114"
         style="fill:#000000;fill-opacity:1;stroke:#000000;stroke-opacity:1"
         sodipodi:cx="83.259003"
         sodipodi:cy="71.771004"
         sodipodi:rx="4.9510002"
         sodipodi:ry="4.9510002"
         transform="matrix(1.1373593,0,0,1.1373593,-8.5981987,-7.4198009)" /><path
         d="m 31.011005,66.069536 -1.015661,0.268417 -0.161506,1.032722 c -1.145321,7.360989 0.118283,12.827138 3.747599,16.259689 5.740253,5.420655 15.124604,3.486006 15.520406,3.402979 L 50.13229,86.81497 50.340426,85.78566 C 51.970262,77.9811 50.947777,72.272694 47.310502,68.825358 41.515656,63.348972 31.43979,65.956937 31.011005,66.069536 z m 14.091882,5.105606 c 1.845935,1.754945 2.775157,4.428878 2.775157,7.997911 0,1.460369 -0.194488,3.112952 -0.510675,4.874722 -2.350921,0.291164 -8.059328,0.574367 -11.581729,-2.768333 -2.088192,-1.977867 -3.140249,-4.986183 -3.140249,-8.97149 0,-1.027035 0.139895,-2.186005 0.283202,-3.349523 2.433949,-0.444707 8.606397,-1.16693 12.174294,2.216713 z"
         id="path116"
         style="fill:#000000;fill-opacity:1;stroke:#000000;stroke-opacity:1"
         inkscape:connector-curvature="0" /><path
         d="m 81.493407,68.404772 c -3.640687,3.447335 -4.660898,9.153468 -3.029925,16.963715 l 0.211549,1.025898 1.025897,0.218373 c 0.395802,0.0853 9.781291,2.021087 15.520406,-3.401842 3.632726,-3.430277 4.894056,-8.899838 3.747599,-16.256278 L 98.807428,65.919641 97.790629,65.64895 c -0.42196,-0.112604 -10.503514,-2.720564 -16.297222,2.755822 z m -0.566405,10.343145 c 0,-3.561072 0.928086,-6.24069 2.77402,-7.995636 3.567896,-3.385918 9.742619,-2.661421 12.176568,-2.215576 0.139895,1.161244 0.278653,2.324763 0.278653,3.349523 0,3.985307 -1.05092,6.994761 -3.136837,8.971492 -3.525813,3.338149 -9.229671,3.058359 -11.585142,2.768333 -0.309361,-1.760633 -0.507262,-3.415492 -0.507262,-4.878136 z"
         id="path118"
         style="fill:#000000;fill-opacity:1;stroke:#000000;stroke-opacity:1"
         inkscape:connector-curvature="0" /><g
         id="g120"
         transform="matrix(1.1373593,0,0,1.1373593,-8.5981987,-7.4198009)"
         style="stroke:#000000;stroke-opacity:1;fill:#000000;fill-opacity:1"><path
           d="m 61.447,97.878 c 1.404,1.677 3.7,1.677 5.101,0 L 72.9,90.282 c 0.246,-0.298 0.438,-0.579 0.568,-0.852 -2.842,-0.854 -6.055,-1.338 -9.464,-1.338 -3.409,0 -6.628,0.484 -9.466,1.338 0.133,0.272 0.315,0.558 0.565,0.852 l 6.344,7.596 z"
           id="path122"
           style="fill:#000000;fill-opacity:1;stroke:#000000;stroke-opacity:1"
           inkscape:connector-curvature="0" /></g><path
         d="m 41.580501,19.057685 c 0,0 -7.882174,-11.4682128 -31.065467,-13.214331 0,0 -12.283594,30.934901 3.92604,45.75121 8.154275,-13.224826 13.929351,-22.583453 27.139427,-32.536879 z"
         id="path19-8"
         style="fill:none;stroke:#000000;stroke-width:3.75262094;stroke-miterlimit:4;stroke-opacity:1;stroke-dasharray:none"
         inkscape:connector-curvature="0"
         sodipodi:nodetypes="cccc" /></g></g></svg>