<?xml version="1.0" encoding="UTF-8" standalone="no"?>
<svg
   xmlns:dc="http://purl.org/dc/elements/1.1/"
   xmlns:cc="http://creativecommons.org/ns#"
   xmlns:rdf="http://www.w3.org/1999/02/22-rdf-syntax-ns#"
   xmlns:svg="http://www.w3.org/2000/svg"
   xmlns="http://www.w3.org/2000/svg"
   xmlns:xlink="http://www.w3.org/1999/xlink"
   xmlns:sodipodi="http://sodipodi.sourceforge.net/DTD/sodipodi-0.dtd"
   xmlns:inkscape="http://www.inkscape.org/namespaces/inkscape"
   id="svg2"
   version="1.1"
   inkscape:version="1.0.2 (unknown)"
   width="22"
   height="22"
   sodipodi:docname="breeze-dark.svg"
   viewBox="0 0 63.8 63.8">
  <metadata
     id="metadata8">
    <rdf:RDF>
      <cc:Work
         rdf:about="">
        <dc:format>image/svg+xml</dc:format>
        <dc:type
           rdf:resource="http://purl.org/dc/dcmitype/StillImage" />
        <dc:title></dc:title>
      </cc:Work>
    </rdf:RDF>
  </metadata>
  <defs
     id="defs6">
    <linearGradient
       id="linearGradient3764"
       x1="1"
       x2="47"
       gradientUnits="userSpaceOnUse"
       gradientTransform="rotate(-90,23.999998,24)">
      <stop
         stop-color="#32a2f8"
         stop-opacity="1"
         id="stop7" />
      <stop
         offset="1"
         stop-color="#45a9f9"
         stop-opacity="1"
         id="stop9" />
    </linearGradient>
    <linearGradient
       inkscape:collect="always"
       xlink:href="#linearGradient3764"
       id="linearGradient3820"
       gradientUnits="userSpaceOnUse"
       x1="11.994687"
       y1="24.005501"
       x2="36"
       y2="24.005501" />
    <linearGradient
       id="linearGradient3012"
       x1="1"
       x2="47"
       gradientUnits="userSpaceOnUse"
       gradientTransform="rotate(-90,23.999998,24)">
      <stop
         stop-color="#32a2f8"
         stop-opacity="1"
         id="stop3014" />
      <stop
         offset="1"
         stop-color="#45a9f9"
         stop-opacity="1"
         id="stop3016" />
    </linearGradient>
    <clipPath
       id="clipPath-121880098">
      <g
         transform="translate(0,-1004.3622)"
         id="g17">
        <path
           style="fill:#1890d0"
           inkscape:connector-curvature="0"
           d="m -24,13 c 0,1.105 -0.672,2 -1.5,2 -0.828,0 -1.5,-0.895 -1.5,-2 0,-1.105 0.672,-2 1.5,-2 0.828,0 1.5,0.895 1.5,2 z"
           transform="matrix(15.333333,0,0,11.5,414.99999,878.8622)"
           id="path19" />
      </g>
    </clipPath>
    <linearGradient
       id="linearGradient3022"
       x1="1"
       x2="47"
       gradientUnits="userSpaceOnUse"
       gradientTransform="rotate(-90,23.999998,24)">
      <stop
         stop-color="#32a2f8"
         stop-opacity="1"
         id="stop3024" />
      <stop
         offset="1"
         stop-color="#45a9f9"
         stop-opacity="1"
         id="stop3026" />
    </linearGradient>
    <linearGradient
       id="linearGradient3029"
       x1="1"
       x2="47"
       gradientUnits="userSpaceOnUse"
       gradientTransform="rotate(-90,23.999998,24)">
      <stop
         stop-color="#32a2f8"
         stop-opacity="1"
         id="stop3031" />
      <stop
         offset="1"
         stop-color="#45a9f9"
         stop-opacity="1"
         id="stop3033" />
    </linearGradient>
  </defs>
  <sodipodi:namedview
     pagecolor="#ffffff"
     bordercolor="#666666"
     borderopacity="1"
     objecttolerance="10"
     gridtolerance="10"
     guidetolerance="10"
     inkscape:pageopacity="0"
     inkscape:pageshadow="2"
     inkscape:window-width="1366"
     inkscape:window-height="640"
     id="namedview4"
     showgrid="false"
     inkscape:zoom="9.4140624"
     inkscape:cx="40.900067"
     inkscape:cy="15.533942"
     inkscape:window-x="0"
     inkscape:window-y="75"
     inkscape:window-maximized="1"
     inkscape:current-layer="svg2"
     showguides="true"
     inkscape:guide-bbox="true"
     inkscape:document-units="px"
     inkscape:document-rotation="0"
     scale-x="2.9" />
  <path
     style="fill:#cccccc;fill-opacity:1;fill-rule:evenodd;stroke:none;stroke-width:1.0223"
     d=""
     id="path3783"
     inkscape:connector-curvature="0" />
  <path
     d="m 42.933042,9.2149217 c 0,0 3.91748,-5.8539691 15.439699,-6.745284 0,0 6.10501,15.7907383 -1.95126,23.3537253 C 52.368759,19.072736 49.49852,14.295651 42.933042,9.2149217 Z"
     id="path19-7"
     style="fill:#ffffff;stroke:#ffffff;stroke-width:1.835;stroke-miterlimit:4;stroke-dasharray:none;stroke-opacity:1"
     inkscape:connector-curvature="0"
     sodipodi:nodetypes="cccc" />
  <path
     inkscape:connector-curvature="0"
     d="m 31.651695,60.501243 c 13.95321,0 25.766298,-9.420824 29.793871,-22.424348 C 57.417993,25.069346 45.604905,5.2575113 31.651695,5.2575113 17.702437,5.2575113 5.8870924,25.069346 1.8617797,38.076895 5.8870924,51.080998 17.702437,60.501243 31.651695,60.501243 Z"
     id="path30"
     style="fill:#ffffff;stroke:#ffffff;stroke-width:1.835;stroke-miterlimit:4;stroke-dasharray:none;stroke-opacity:1" />
  <g
     transform="matrix(0.56527353,0,0,0.58056564,-4.5241158,-4.2219582)"
     id="g32"
     style="fill:#ffffff;stroke-width:0.0713236;stroke-miterlimit:4;stroke-dasharray:none">
    <g
       id="g34"
       style="fill:#ffffff;stroke-width:0.0713236;stroke-miterlimit:4;stroke-dasharray:none">
      <g
         id="g36"
         style="fill:#ffffff;stroke-width:0.0713236;stroke-miterlimit:4;stroke-dasharray:none">
        <line
           style="fill:#ffffff;stroke-width:0.0713236;stroke-miterlimit:4;stroke-dasharray:none"
           x1="45.942001"
           y1="92.757004"
           x2="17.620001"
           y2="114.775"
           id="line38" />
        <linearGradient
           id="SVGID_4_"
           gradientUnits="userSpaceOnUse"
           x1="16.9111"
           y1="103.7656"
           x2="46.650902"
           y2="103.7656">
          <stop
             offset="0"
             style="stop-color:#EC008C"
             id="stop41" />
          <stop
             offset="1"
             style="stop-color:#C4008C"
             id="stop43" />
        </linearGradient>
        <path
           inkscape:connector-curvature="0"
           d="m 45.558,92.045 -28.323,22.019 c -0.328,0.258 -0.423,0.778 -0.208,1.176 0.213,0.392 0.65,0.502 0.978,0.246 L 46.327,93.47 c 0.329,-0.256 0.423,-0.783 0.209,-1.178 -0.212,-0.391 -0.651,-0.502 -0.978,-0.247 z"
           id="path45"
           style="fill:#ffffff;fill-opacity:1;stroke-width:0.0713236;stroke-miterlimit:4;stroke-dasharray:none" />
      </g>
      <g
         id="g47"
         style="fill:#ffffff;stroke-width:0.0713236;stroke-miterlimit:4;stroke-dasharray:none">
        <line
           style="fill:#ffffff;stroke-width:0.0713236;stroke-miterlimit:4;stroke-dasharray:none"
           x1="52.318001"
           y1="93.602997"
           x2="23.992001"
           y2="115.626"
           id="line49" />
        <linearGradient
           id="SVGID_5_"
           gradientUnits="userSpaceOnUse"
           x1="23.283199"
           y1="104.6143"
           x2="53.023399"
           y2="104.6143">
          <stop
             offset="0"
             style="stop-color:#EC008C"
             id="stop52" />
          <stop
             offset="1"
             style="stop-color:#C4008C"
             id="stop54" />
        </linearGradient>
        <path
           inkscape:connector-curvature="0"
           d="m 51.93,92.896 -28.325,22.016 c -0.329,0.253 -0.42,0.779 -0.206,1.174 0.211,0.395 0.651,0.506 0.978,0.253 L 52.701,94.313 c 0.328,-0.255 0.422,-0.779 0.208,-1.176 -0.215,-0.39 -0.65,-0.501 -0.979,-0.241 z"
           id="path56"
           style="fill:#ffffff;fill-opacity:1;stroke-width:0.0713236;stroke-miterlimit:4;stroke-dasharray:none" />
      </g>
    </g>
    <g
       id="g58"
       style="fill:#ffffff;stroke-width:0.0713236;stroke-miterlimit:4;stroke-dasharray:none">
      <g
         id="g60"
         style="fill:#ffffff;stroke-width:0.0713236;stroke-miterlimit:4;stroke-dasharray:none">
        <line
           style="fill:#ffffff;stroke-width:0.0713236;stroke-miterlimit:4;stroke-dasharray:none"
           x1="82.056"
           y1="92.757004"
           x2="110.378"
           y2="114.775"
           id="line62" />
        <linearGradient
           id="SVGID_6_"
           gradientUnits="userSpaceOnUse"
           x1="81.346703"
           y1="103.7656"
           x2="111.0859"
           y2="103.7656">
          <stop
             offset="0"
             style="stop-color:#EC008C"
             id="stop65" />
          <stop
             offset="1"
             style="stop-color:#C4008C"
             id="stop67" />
        </linearGradient>
        <path
           inkscape:connector-curvature="0"
           d="m 82.44,92.045 28.324,22.019 c 0.327,0.258 0.42,0.778 0.207,1.176 -0.211,0.392 -0.65,0.502 -0.979,0.246 L 81.671,93.47 c -0.328,-0.256 -0.424,-0.783 -0.209,-1.178 0.215,-0.391 0.654,-0.502 0.978,-0.247 z"
           id="path69"
           style="fill:#ffffff;fill-opacity:1;stroke-width:0.0713236;stroke-miterlimit:4;stroke-dasharray:none" />
      </g>
      <g
         id="g71"
         style="fill:#ffffff;stroke-width:0.0713236;stroke-miterlimit:4;stroke-dasharray:none">
        <line
           style="fill:#ffffff;stroke-width:0.0713236;stroke-miterlimit:4;stroke-dasharray:none"
           x1="75.682999"
           y1="93.602997"
           x2="104.005"
           y2="115.626"
           id="line73" />
        <linearGradient
           id="SVGID_7_"
           gradientUnits="userSpaceOnUse"
           x1="74.973602"
           y1="104.6133"
           x2="104.7119"
           y2="104.6133">
          <stop
             offset="0"
             style="stop-color:#EC008C"
             id="stop76" />
          <stop
             offset="1"
             style="stop-color:#C4008C"
             id="stop78" />
        </linearGradient>
        <path
           inkscape:connector-curvature="0"
           d="m 76.067,92.896 28.323,22.016 c 0.325,0.253 0.42,0.779 0.208,1.174 -0.217,0.392 -0.652,0.506 -0.979,0.253 L 75.298,94.312 c -0.328,-0.255 -0.424,-0.779 -0.209,-1.176 0.215,-0.389 0.654,-0.5 0.978,-0.24 z"
           id="path80"
           style="fill:#ffffff;fill-opacity:1;stroke-width:0.0713236;stroke-miterlimit:4;stroke-dasharray:none" />
      </g>
    </g>
  </g>
  <line
     x1="31.653383"
     y1="50.968903"
     x2="31.653383"
     y2="55.709202"
     id="line86"
     style="fill:#ffffff;stroke:#ffffff;stroke-width:1.22333;stroke-miterlimit:4;stroke-dasharray:none;stroke-opacity:1" />
  <path
     inkscape:connector-curvature="0"
     d="M 22.798944,8.1644157 C 21.887726,8.6846154 20.364877,9.8381879 20.364877,9.8381879 L 28.477684,23.076847 25.541088,6.7751031 c 0,0 -1.76422,0.8313946 -2.742144,1.3893126 z"
     id="path93"
     style="fill:#ffffff;stroke:#ffffff;stroke-width:1.22333;stroke-miterlimit:4;stroke-dasharray:none;stroke-opacity:1" />
  <path
     inkscape:connector-curvature="0"
     d="M 30.166157,5.9010454 C 28.558518,6.0797848 27.102374,6.5704202 27.102374,6.5704202 L 31.141818,22.066301 32.448164,5.8777918 c -4.92e-4,6.226e-4 -0.674371,-0.1551048 -2.282007,0.02297 z"
     id="path100"
     style="fill:#ffffff;stroke:#ffffff;stroke-width:1.22333;stroke-miterlimit:4;stroke-dasharray:none;stroke-opacity:1" />
  <ellipse
     cx="20.728338"
     cy="37.445744"
     id="circle107"
     style="fill:#ffffff;fill-opacity:1;stroke-width:1.001;stroke-miterlimit:4;stroke-dasharray:none"
     rx="2.7986693"
     ry="2.8743806" />
  <ellipse
     cx="42.539989"
     cy="37.445744"
     id="circle114"
     style="fill:#ffffff;fill-opacity:1;stroke-width:1.001;stroke-miterlimit:4;stroke-dasharray:none"
     rx="2.7986693"
     ry="2.8743806" />
  <path
     d="m 15.161861,33.290719 -0.504786,0.136971 -0.08026,0.527152 c -0.569234,3.757448 0.05881,6.547642 1.862576,8.299789 2.852937,2.766985 7.517009,1.77942 7.713725,1.73706 l 0.512135,-0.111402 0.103448,-0.525398 c 0.81003,-3.983886 0.301857,-6.89776 -1.505897,-8.65745 -2.880068,-2.795418 -7.887825,-1.464212 -8.100933,-1.406722 z m 7.003744,2.606166 c 0.917438,0.895801 1.379263,2.260705 1.379263,4.082523 0,0.74547 -0.09667,1.589008 -0.253814,2.488296 -1.168423,0.148577 -4.005528,0.293225 -5.756181,-1.413068 -1.037844,-1.009614 -1.560721,-2.545201 -1.560721,-4.579516 0,-0.52425 0.06953,-1.115848 0.140755,-1.70975 1.209685,-0.227097 4.277425,-0.595698 6.050689,1.131515 z"
     id="path116"
     style="fill:#ffffff;fill-opacity:1;stroke-width:1.001;stroke-miterlimit:4;stroke-dasharray:none"
     inkscape:connector-curvature="0" />
  <path
     d="m 40.251886,34.482735 c -1.809444,1.759692 -2.316491,4.672405 -1.505894,8.659143 l 0.105146,0.523706 0.509876,0.111403 c 0.196716,0.04352 4.861354,1.03167 7.713724,-1.736474 1.805486,-1.750986 2.432373,-4.542922 1.862582,-8.298013 l -0.08027,-0.5283 -0.505355,-0.138119 c -0.209712,-0.05742 -5.220298,-1.388696 -8.099802,1.406721 z m -0.281516,5.279647 c 0,-1.817713 0.461259,-3.185562 1.378699,-4.081362 1.77326,-1.728355 4.84213,-1.35852 6.051819,-1.130935 0.06952,0.592735 0.138495,1.186679 0.138495,1.709749 0,2.034317 -0.522316,3.570483 -1.559024,4.579517 -1.752347,1.703941 -4.587193,1.561156 -5.757879,1.413105 -0.153738,-0.898745 -0.252116,-1.743443 -0.252116,-2.490074 z"
     id="path118"
     style="fill:#ffffff;fill-opacity:1;stroke-width:1.001;stroke-miterlimit:4;stroke-dasharray:none"
     inkscape:connector-curvature="0" />
  <g
     transform="matrix(0.56527353,0,0,0.58056564,-4.5241158,-4.2219582)"
     id="g120"
     style="fill:#ffffff;stroke-width:0.0713236;stroke-miterlimit:4;stroke-dasharray:none">
    <path
       inkscape:connector-curvature="0"
       d="m 61.447,97.878 c 1.404,1.677 3.7,1.677 5.101,0 L 72.9,90.282 c 0.246,-0.298 0.438,-0.579 0.568,-0.852 -2.842,-0.854 -6.055,-1.338 -9.464,-1.338 -3.409,0 -6.628,0.484 -9.466,1.338 0.133,0.272 0.315,0.558 0.565,0.852 z"
       id="path122"
       style="fill:#ffffff;fill-opacity:1;stroke-width:0.0713236;stroke-miterlimit:4;stroke-dasharray:none" />
  </g>
  <path
     d="m 20.414959,9.2934956 c 0,0 -3.917481,-5.8539752 -15.4396982,-6.7452537 0,0 -6.1050107,15.7907081 1.9512617,23.3537321 C 10.979238,19.151346 13.849484,14.37422 20.414959,9.2934956 Z"
     id="path19-8"
     style="fill:#ffffff;stroke:#ffffff;stroke-width:1.835;stroke-miterlimit:4;stroke-dasharray:none;stroke-opacity:1"
     inkscape:connector-curvature="0"
     sodipodi:nodetypes="cccc" />
</svg>
