<?xml version="1.0" encoding="UTF-8" standalone="no"?>
<!-- Created with Inkscape (http://www.inkscape.org/) -->

<svg
   xmlns:dc="http://purl.org/dc/elements/1.1/"
   xmlns:cc="http://creativecommons.org/ns#"
   xmlns:rdf="http://www.w3.org/1999/02/22-rdf-syntax-ns#"
   xmlns:svg="http://www.w3.org/2000/svg"
   xmlns="http://www.w3.org/2000/svg"
   xmlns:xlink="http://www.w3.org/1999/xlink"
   xmlns:sodipodi="http://sodipodi.sourceforge.net/DTD/sodipodi-0.dtd"
   xmlns:inkscape="http://www.inkscape.org/namespaces/inkscape"
   width="550"
   height="80"
   id="svg2"
   version="1.1"
   inkscape:version="0.91 r13725"
   sodipodi:docname="header.svg"
   inkscape:export-filename="/run/media/trlinux/769453C994538A8F/Users/bilgisayar/Documents/DDD/header1.png"
   inkscape:export-xdpi="90"
   inkscape:export-ydpi="90">
  <defs
     id="defs4">
    <linearGradient
       id="linearGradient4260">
      <stop
         style="stop-color:#0e2851;stop-opacity:1"
         offset="0"
         id="stop4262" />
      <stop
         style="stop-color:#1a1a1a;stop-opacity:0.86387432;"
         offset="1"
         id="stop4264" />
    </linearGradient>
    <linearGradient
       id="linearGradient3770">
      <stop
         style="stop-color:#1a1a1a;stop-opacity:1;"
         offset="0"
         id="stop3772" />
      <stop
         style="stop-color:#3daee9;stop-opacity:1"
         offset="1"
         id="stop3774" />
    </linearGradient>
    <linearGradient
       inkscape:collect="always"
       xlink:href="#linearGradient3770"
       id="linearGradient3776"
       x1="0"
       y1="1012.3622"
       x2="550.00003"
       y2="1012.3622"
       gradientUnits="userSpaceOnUse"
       gradientTransform="matrix(1.0286376,0,0,1.0286376,-0.99999999,-29.13716)" />
    <linearGradient
       id="SVGID_1_"
       gradientUnits="userSpaceOnUse"
       x1="-377.39111"
       y1="869.43951"
       x2="-377.39111"
       y2="830.86438"
       gradientTransform="translate(412.6201,-813.9922)">
      <stop
         offset="0"
         style="stop-color:#EC008C"
         id="stop8" />
      <stop
         offset="1"
         style="stop-color:#C40075"
         id="stop10" />
    </linearGradient>
    <linearGradient
       id="SVGID_2_"
       gradientUnits="userSpaceOnUse"
       x1="-319.54739"
       y1="869.43951"
       x2="-319.54739"
       y2="830.86438"
       gradientTransform="translate(412.6201,-813.9922)">
      <stop
         offset="0"
         style="stop-color:#EC008C"
         id="stop15" />
      <stop
         offset="1"
         style="stop-color:#C40075"
         id="stop17" />
    </linearGradient>
    <radialGradient
       id="SVGID_3_"
       cx="-348.61911"
       cy="877.89752"
       r="50.205601"
       gradientTransform="translate(412.6201,-813.9922)"
       gradientUnits="userSpaceOnUse">
      <stop
         offset="0"
         style="stop-color:#FAFAFA"
         id="stop22" />
      <stop
         offset="0.3109"
         style="stop-color:#F4F4F4"
         id="stop24" />
      <stop
         offset="0.7262"
         style="stop-color:#E3E3E3"
         id="stop26" />
      <stop
         offset="1"
         style="stop-color:#D4D4D4"
         id="stop28" />
    </radialGradient>
    <linearGradient
       id="SVGID_4_"
       gradientUnits="userSpaceOnUse"
       x1="16.9111"
       y1="103.7656"
       x2="46.650902"
       y2="103.7656">
      <stop
         offset="0"
         style="stop-color:#EC008C"
         id="stop41" />
      <stop
         offset="1"
         style="stop-color:#C4008C"
         id="stop43" />
    </linearGradient>
    <linearGradient
       id="SVGID_5_"
       gradientUnits="userSpaceOnUse"
       x1="23.283199"
       y1="104.6143"
       x2="53.023399"
       y2="104.6143">
      <stop
         offset="0"
         style="stop-color:#EC008C"
         id="stop52" />
      <stop
         offset="1"
         style="stop-color:#C4008C"
         id="stop54" />
    </linearGradient>
    <linearGradient
       id="SVGID_6_"
       gradientUnits="userSpaceOnUse"
       x1="81.346703"
       y1="103.7656"
       x2="111.0859"
       y2="103.7656">
      <stop
         offset="0"
         style="stop-color:#EC008C"
         id="stop65" />
      <stop
         offset="1"
         style="stop-color:#C4008C"
         id="stop67" />
    </linearGradient>
    <linearGradient
       id="SVGID_7_"
       gradientUnits="userSpaceOnUse"
       x1="74.973602"
       y1="104.6133"
       x2="104.7119"
       y2="104.6133">
      <stop
         offset="0"
         style="stop-color:#EC008C"
         id="stop76" />
      <stop
         offset="1"
         style="stop-color:#C4008C"
         id="stop78" />
    </linearGradient>
    <linearGradient
       id="SVGID_8_"
       gradientUnits="userSpaceOnUse"
       x1="-368.58981"
       y1="846.97272"
       x2="-354.23831"
       y2="846.97272"
       gradientTransform="translate(412.6201,-813.9922)">
      <stop
         offset="0"
         style="stop-color:#9A9A9A"
         id="stop89" />
      <stop
         offset="1"
         style="stop-color:#DEDEDE"
         id="stop91" />
    </linearGradient>
    <linearGradient
       id="SVGID_9_"
       gradientUnits="userSpaceOnUse"
       x1="-356.67191"
       y1="844.71582"
       x2="-347.21481"
       y2="844.71582"
       gradientTransform="translate(412.6201,-813.9922)">
      <stop
         offset="0"
         style="stop-color:#9A9A9A"
         id="stop96" />
      <stop
         offset="1"
         style="stop-color:#DEDEDE"
         id="stop98" />
    </linearGradient>
    <linearGradient
       id="SVGID_10_"
       gradientUnits="userSpaceOnUse"
       x1="-372.896"
       y1="885.76172"
       x2="-362.9971"
       y2="885.76172"
       gradientTransform="translate(412.6201,-813.9922)">
      <stop
         offset="0"
         style="stop-color:#5F5D5C"
         id="stop103" />
      <stop
         offset="1"
         style="stop-color:#181500"
         id="stop105" />
    </linearGradient>
    <linearGradient
       id="SVGID_11_"
       gradientUnits="userSpaceOnUse"
       x1="-334.31149"
       y1="885.76172"
       x2="-324.40921"
       y2="885.76172"
       gradientTransform="translate(412.6201,-813.9922)">
      <stop
         offset="0"
         style="stop-color:#5F5D5C"
         id="stop110" />
      <stop
         offset="1"
         style="stop-color:#181500"
         id="stop112" />
    </linearGradient>
    <linearGradient
       inkscape:collect="always"
       xlink:href="#linearGradient4260"
       id="linearGradient4266"
       x1="130.87639"
       y1="1006.4695"
       x2="82.965721"
       y2="1004.816"
       gradientUnits="userSpaceOnUse" />
  </defs>
  <sodipodi:namedview
     id="base"
     pagecolor="#ffffff"
     bordercolor="#666666"
     borderopacity="1.0"
     inkscape:pageopacity="0.0"
     inkscape:pageshadow="2"
     inkscape:zoom="1.0690909"
     inkscape:cx="300.50074"
     inkscape:cy="-37.998146"
     inkscape:document-units="px"
     inkscape:current-layer="layer1"
     showgrid="false"
     inkscape:window-width="1366"
     inkscape:window-height="725"
     inkscape:window-x="-5"
     inkscape:window-y="-10"
     inkscape:window-maximized="1" />
  <metadata
     id="metadata7">
    <rdf:RDF>
      <cc:Work
         rdf:about="">
        <dc:format>image/svg+xml</dc:format>
        <dc:type
           rdf:resource="http://purl.org/dc/dcmitype/StillImage" />
        <dc:title></dc:title>
      </cc:Work>
    </rdf:RDF>
  </metadata>
  <g
     inkscape:label="Layer 1"
     inkscape:groupmode="layer"
     id="layer1"
     transform="translate(0,-972.36215)">
    <rect
       style="fill:url(#linearGradient3776);fill-opacity:1;stroke:#dcdcdc;stroke-width:1.00977564;stroke-opacity:1"
       id="rect3000"
       width="564.74097"
       height="81.281227"
       x="-0.49511215"
       y="971.57599" />
    <rect
       id="shape0"
       stroke-miterlimit="2.00000000000"
       width="9.6190968"
       height="15.920035"
       x="446.59656"
       y="1028.4701"
       style="fill:#c4cbcf;fill-rule:evenodd;stroke:#003bc3;stroke-width:0;stroke-linecap:square;stroke-linejoin:miter;stroke-miterlimit:2" />
    <rect
       id="shape1"
       stroke-miterlimit="2.00000000000"
       width="9.6190968"
       height="15.920035"
       x="456.21552"
       y="1028.4701"
       style="fill:#a8b2b8;fill-rule:evenodd;stroke:#003bc3;stroke-width:0;stroke-linecap:square;stroke-linejoin:miter;stroke-miterlimit:2" />
    <rect
       id="shape2"
       stroke-miterlimit="2.00000000000"
       width="33.353157"
       height="47.232639"
       rx="6.8342366"
       ry="5.9276724"
       x="439.39294"
       y="982.22955"
       style="fill:#1e57a6;fill-opacity:1;fill-rule:evenodd;stroke:#003bc3;stroke-width:0;stroke-linecap:square;stroke-linejoin:miter;stroke-miterlimit:2" />
    <rect
       id="shape3"
       stroke-miterlimit="2.00000000000"
       width="5.0665936"
       height="2.6487448"
       x="448.83975"
       y="1037.7697"
       style="fill:#4d4d4d;fill-rule:evenodd;stroke:#003bc3;stroke-width:0;stroke-linecap:square;stroke-linejoin:miter;stroke-miterlimit:2" />
    <rect
       id="shape4"
       stroke-miterlimit="2.00000000000"
       width="5.1012959"
       height="2.6487448"
       x="458.83414"
       y="1037.7697"
       style="fill:#4d4d4d;fill-rule:evenodd;stroke:#003bc3;stroke-width:0;stroke-linecap:square;stroke-linejoin:miter;stroke-miterlimit:2" />
    <rect
       id="rect1933"
       transform="matrix(0,-1,1,0,0,0)"
       stroke-miterlimit="2.00000000000"
       width="4.5109448"
       height="5.2135024"
       x="-999.62952"
       y="460.9841"
       style="fill:#3daee9;fill-opacity:1;stroke:#2c3e50;stroke-width:0;stroke-linecap:butt;stroke-linejoin:miter;stroke-miterlimit:2" />
    <path
       id="path2830"
       stroke-miterlimit="2.00000000000"
       d="m 456.20067,1016.6688 c 1.95624,0 3.54236,1.3744 3.54236,3.0701 0,1.6957 -1.58612,3.0703 -3.54236,3.0699 -1.9563,0 -3.54239,-1.3742 -3.54239,-3.0699 0,-1.6957 1.58609,-3.0704 3.54239,-3.0701 z"
       inkscape:connector-curvature="0"
       style="fill:#3daee9;fill-opacity:1;stroke:#2c3e50;stroke-width:0;stroke-linecap:butt;stroke-linejoin:miter;stroke-miterlimit:2" />
    <path
       id="path4602"
       stroke-miterlimit="2.00000000000"
       d="m 449.55969,999.08499 c 1.73246,0 3.13705,1.21701 3.13705,2.71871 0,1.5017 -1.40459,2.7191 -3.13705,2.7187 -1.73245,0 -3.13707,-1.217 -3.13707,-2.7187 0,-1.5017 1.40462,-2.71901 3.13707,-2.71871 z"
       inkscape:connector-curvature="0"
       style="fill:#3daee9;fill-opacity:1;stroke:#d60048;stroke-width:0;stroke-linecap:butt;stroke-linejoin:miter;stroke-miterlimit:2;stroke-opacity:1" />
    <path
       id="path4608"
       stroke-miterlimit="2.00000000000"
       d="m 453.40988,992.39469 c 0,0 2.79335,-5.47416 2.86206,-5.39177 0.0687,0.0823 2.77044,5.39177 2.77044,5.39177 z"
       inkscape:connector-curvature="0"
       style="fill:#3daee9;fill-opacity:1;fill-rule:evenodd;stroke:#3daee9;stroke-width:0;stroke-linecap:butt;stroke-linejoin:miter;stroke-miterlimit:2;stroke-opacity:1" />
    <path
       id="path2766"
       stroke-miterlimit="2.01260191180"
       d="m 456.18845,1015.1783 c -0.47702,-3.8679 -6.94586,-5.7825 -6.96349,-8.028 -0.012,-1.5184 0.0691,-2.1831 0.0539,-4.115"
       inkscape:connector-curvature="0"
       style="fill:none;stroke:#3daee9;stroke-width:0.3717677;stroke-linecap:butt;stroke-linejoin:miter;stroke-miterlimit:2.01260185;stroke-opacity:1" />
    <path
       id="path3653"
       stroke-miterlimit="2.01260191180"
       d="m 456.19084,1011.0614 c 0,-3.8075 4.82127,-4.7043 7.21121,-7.5208 0.36499,-0.4771 0.12768,-4.78131 0.12768,-5.05651"
       inkscape:connector-curvature="0"
       style="fill:none;stroke:#3daee9;stroke-width:0.37176761;stroke-linecap:butt;stroke-linejoin:miter;stroke-miterlimit:2.01260185;stroke-opacity:1" />
    <path
       id="path5436"
       stroke-miterlimit="2.01260191180"
       d="m 456.17742,1019.793 0,-28.56641"
       inkscape:connector-curvature="0"
       style="fill:none;stroke:#3daee9;stroke-width:0.37176761;stroke-linecap:butt;stroke-linejoin:miter;stroke-miterlimit:2.01260185;stroke-opacity:1" />
    <path
       sodipodi:type="arc"
       style="fill:#2ad4ff;fill-opacity:1;stroke:none"
       id="path3807"
       sodipodi:cx="426.78946"
       sodipodi:cy="44.392124"
       sodipodi:rx="7.0710678"
       sodipodi:ry="6.8185296"
       d="m 433.86053,44.392124 a 7.0710678,6.8185296 0 0 1 -7.07107,6.81853 7.0710678,6.8185296 0 0 1 -7.07107,-6.81853 7.0710678,6.8185296 0 0 1 7.07107,-6.818529 7.0710678,6.8185296 0 0 1 7.07107,6.818529 z"
       transform="matrix(1.0606602,0,0,1.0999439,-28.730218,961.16025)" />
    <path
       sodipodi:type="arc"
       style="fill:#00ccff;fill-opacity:1;stroke:none"
       id="path3807-1"
       sodipodi:cx="426.78946"
       sodipodi:cy="44.392124"
       sodipodi:rx="7.0710678"
       sodipodi:ry="6.8185296"
       d="m 433.86053,44.392124 a 7.0710678,6.8185296 0 0 1 -7.07107,6.81853 7.0710678,6.8185296 0 0 1 -7.07107,-6.81853 7.0710678,6.8185296 0 0 1 7.07107,-6.818529 7.0710678,6.8185296 0 0 1 7.07107,6.818529 z"
       transform="matrix(1.4142136,0,0,1.4665919,-206.30746,934.21071)" />
    <path
       sodipodi:type="arc"
       style="fill:#00aad4;fill-opacity:1;stroke:none"
       id="path3807-1-3"
       sodipodi:cx="426.78946"
       sodipodi:cy="44.392124"
       sodipodi:rx="7.0710678"
       sodipodi:ry="6.8185296"
       d="m 433.86053,44.392124 a 7.0710678,6.8185296 0 0 1 -7.07107,6.81853 7.0710678,6.8185296 0 0 1 -7.07107,-6.81853 7.0710678,6.8185296 0 0 1 7.07107,-6.818529 7.0710678,6.8185296 0 0 1 7.07107,6.818529 z"
       transform="matrix(2.1213203,0,0,2.1998878,-546.78573,902.46807)" />
    <path
       sodipodi:type="arc"
       style="fill:#0088aa;fill-opacity:1;stroke:none"
       id="path3807-1-3-7"
       sodipodi:cx="426.78946"
       sodipodi:cy="44.392124"
       sodipodi:rx="7.0710678"
       sodipodi:ry="6.8185296"
       d="m 433.86053,44.392124 a 7.0710678,6.8185296 0 0 1 -7.07107,6.81853 7.0710678,6.8185296 0 0 1 -7.07107,-6.81853 7.0710678,6.8185296 0 0 1 7.07107,-6.818529 7.0710678,6.8185296 0 0 1 7.07107,6.818529 z"
       transform="matrix(2.8284271,0,0,2.9331837,-897.21091,886.75224)" />
    <path
       sodipodi:type="arc"
       style="fill:#80e5ff;fill-opacity:1;stroke:none"
       id="path3807-8"
       sodipodi:cx="426.78946"
       sodipodi:cy="44.392124"
       sodipodi:rx="7.0710678"
       sodipodi:ry="6.8185296"
       d="m 433.86053,44.392124 a 7.0710678,6.8185296 0 0 1 -7.07107,6.81853 7.0710678,6.8185296 0 0 1 -7.07107,-6.81853 7.0710678,6.8185296 0 0 1 7.07107,-6.818529 7.0710678,6.8185296 0 0 1 7.07107,6.818529 z"
       transform="matrix(0.49497475,0,0,0.51330715,230.45577,998.49886)" />
    <g
       transform="matrix(0.51652073,0,0,0.51652073,13.711122,978.50083)"
       id="g3">
      <g
         id="g5">
        <linearGradient
           id="linearGradient3156"
           gradientUnits="userSpaceOnUse"
           x1="-377.39111"
           y1="869.43951"
           x2="-377.39111"
           y2="830.86438"
           gradientTransform="translate(412.6201,-813.9922)">
          <stop
             offset="0"
             style="stop-color:#EC008C"
             id="stop3158" />
          <stop
             offset="1"
             style="stop-color:#C40075"
             id="stop3160" />
        </linearGradient>
        <path
           style="fill:#3daee9;fill-opacity:1"
           inkscape:connector-curvature="0"
           d="m 54.809,45.109 c 0,0 -3.008,-28.387 -37.776,-33.583 0,0 -12.369,48.379 17.048,52.777 29.418,4.395 20.728,-19.194 20.728,-19.194 z"
           id="path12" />
        <linearGradient
           id="linearGradient3163"
           gradientUnits="userSpaceOnUse"
           x1="-319.54739"
           y1="869.43951"
           x2="-319.54739"
           y2="830.86438"
           gradientTransform="translate(412.6201,-813.9922)">
          <stop
             offset="0"
             style="stop-color:#EC008C"
             id="stop3165" />
          <stop
             offset="1"
             style="stop-color:#C40075"
             id="stop3167" />
        </linearGradient>
        <path
           style="fill:#3daee9;fill-opacity:1"
           inkscape:connector-curvature="0"
           d="m 73.495,45.109 c 0,0 3.008,-28.387 37.773,-33.583 0,0 12.369,48.379 -17.049,52.777 C 64.802,68.698 73.495,45.109 73.495,45.109 z"
           id="path19" />
        <radialGradient
           id="radialGradient3170"
           cx="-348.61911"
           cy="877.89752"
           r="50.205601"
           gradientTransform="translate(412.6201,-813.9922)"
           gradientUnits="userSpaceOnUse">
          <stop
             offset="0"
             style="stop-color:#FAFAFA"
             id="stop3172" />
          <stop
             offset="0.3109"
             style="stop-color:#F4F4F4"
             id="stop3174" />
          <stop
             offset="0.7262"
             style="stop-color:#E3E3E3"
             id="stop3176" />
          <stop
             offset="1"
             style="stop-color:#D4D4D4"
             id="stop3178" />
        </radialGradient>
        <path
           style="fill:#ffffff;stroke:#1a1a1a;fill-opacity:1;stroke-opacity:1"
           inkscape:connector-curvature="0"
           d="m 63.997,111.483 c 24.684,0 45.582,-16.227 52.707,-38.625 -7.125,-22.405 -28.023,-56.53 -52.707,-56.53 -24.677,0 -45.579,34.125 -52.7,56.53 7.121,22.399 28.023,38.625 52.7,38.625 z"
           id="path30" />
        <g
           id="g32">
          <g
             id="g34">
            <g
               id="g36">
              <line
                 style="fill:none"
                 x1="45.942001"
                 y1="92.757004"
                 x2="17.620001"
                 y2="114.775"
                 id="line38" />
              <linearGradient
                 id="linearGradient3185"
                 gradientUnits="userSpaceOnUse"
                 x1="16.9111"
                 y1="103.7656"
                 x2="46.650902"
                 y2="103.7656">
                <stop
                   offset="0"
                   style="stop-color:#EC008C"
                   id="stop3187" />
                <stop
                   offset="1"
                   style="stop-color:#C4008C"
                   id="stop3189" />
              </linearGradient>
              <path
                 style="fill:#3daee9;fill-opacity:1"
                 inkscape:connector-curvature="0"
                 d="m 45.558,92.045 -28.323,22.019 c -0.328,0.258 -0.423,0.778 -0.208,1.176 0.213,0.392 0.65,0.502 0.978,0.246 L 46.327,93.47 c 0.329,-0.256 0.423,-0.783 0.209,-1.178 -0.212,-0.391 -0.651,-0.502 -0.978,-0.247 z"
                 id="path45" />
            </g>
            <g
               id="g47">
              <line
                 style="fill:none"
                 x1="52.318001"
                 y1="93.602997"
                 x2="23.992001"
                 y2="115.626"
                 id="line49" />
              <linearGradient
                 id="linearGradient3194"
                 gradientUnits="userSpaceOnUse"
                 x1="23.283199"
                 y1="104.6143"
                 x2="53.023399"
                 y2="104.6143">
                <stop
                   offset="0"
                   style="stop-color:#EC008C"
                   id="stop3196" />
                <stop
                   offset="1"
                   style="stop-color:#C4008C"
                   id="stop3198" />
              </linearGradient>
              <path
                 style="fill:#3daee9;fill-opacity:1"
                 inkscape:connector-curvature="0"
                 d="m 51.93,92.896 -28.325,22.016 c -0.329,0.253 -0.42,0.779 -0.206,1.174 0.211,0.395 0.651,0.506 0.978,0.253 L 52.701,94.313 c 0.328,-0.255 0.422,-0.779 0.208,-1.176 -0.215,-0.39 -0.65,-0.501 -0.979,-0.241 z"
                 id="path56" />
            </g>
          </g>
          <g
             id="g58">
            <g
               id="g60">
              <line
                 style="fill:none"
                 x1="82.056"
                 y1="92.757004"
                 x2="110.378"
                 y2="114.775"
                 id="line62" />
              <linearGradient
                 id="linearGradient3204"
                 gradientUnits="userSpaceOnUse"
                 x1="81.346703"
                 y1="103.7656"
                 x2="111.0859"
                 y2="103.7656">
                <stop
                   offset="0"
                   style="stop-color:#EC008C"
                   id="stop3206" />
                <stop
                   offset="1"
                   style="stop-color:#C4008C"
                   id="stop3208" />
              </linearGradient>
              <path
                 style="fill:#3daee9;fill-opacity:1"
                 inkscape:connector-curvature="0"
                 d="m 82.44,92.045 28.324,22.019 c 0.327,0.258 0.42,0.778 0.207,1.176 -0.211,0.392 -0.65,0.502 -0.979,0.246 L 81.671,93.47 c -0.328,-0.256 -0.424,-0.783 -0.209,-1.178 0.215,-0.391 0.654,-0.502 0.978,-0.247 z"
                 id="path69" />
            </g>
            <g
               id="g71">
              <line
                 style="fill:none"
                 x1="75.682999"
                 y1="93.602997"
                 x2="104.005"
                 y2="115.626"
                 id="line73" />
              <linearGradient
                 id="linearGradient3213"
                 gradientUnits="userSpaceOnUse"
                 x1="74.973602"
                 y1="104.6133"
                 x2="104.7119"
                 y2="104.6133">
                <stop
                   offset="0"
                   style="stop-color:#EC008C"
                   id="stop3215" />
                <stop
                   offset="1"
                   style="stop-color:#C4008C"
                   id="stop3217" />
              </linearGradient>
              <path
                 style="fill:#3daee9;fill-opacity:1"
                 inkscape:connector-curvature="0"
                 d="m 76.067,92.896 28.323,22.016 c 0.325,0.253 0.42,0.779 0.208,1.174 -0.217,0.392 -0.652,0.506 -0.979,0.253 L 75.298,94.312 c -0.328,-0.255 -0.424,-0.779 -0.209,-1.176 0.215,-0.389 0.654,-0.5 0.978,-0.24 z"
                 id="path80" />
              <path
                 style="fill:#ffffff;fill-opacity:1;stroke:none"
                 d="m 258.5039,93.65042 -7.35684,0 0.22636,-42.443214 7.01728,0 z"
                 id="path4180-2"
                 inkscape:connector-curvature="0" />
              <path
                 style="fill:#ffffff;fill-opacity:1;stroke:none"
                 d="m 251.93932,43.623913 7.01728,0 0,-8.828201 -7.13046,0 z"
                 id="path4182-7"
                 inkscape:connector-curvature="0" />
              <path
                 style="fill:#ffffff;fill-opacity:1;stroke:none"
                 d="m 324.1495,94.103146 -7.35684,0 0.22636,-42.44321 7.01728,0 z"
                 id="path4180-8"
                 inkscape:connector-curvature="0" />
              <path
                 style="fill:#ffffff;fill-opacity:1;stroke:none"
                 d="m 317.58493,44.076641 7.01728,0 0,-8.828201 -7.13046,0 z"
                 id="path4182-70"
                 inkscape:connector-curvature="0" />
            </g>
          </g>
        </g>
        <path
           style="fill:#ffffff"
           inkscape:connector-curvature="0"
           d="m 34.45,65.979 c 0,0 19.605,-5.223 15.249,15.683 -10e-4,0 -18.296,3.923 -15.249,-15.683 z"
           id="path82" />
        <path
           style="fill:#ffffff"
           inkscape:connector-curvature="0"
           d="m 93.548,65.979 c 0,0 -19.604,-5.223 -15.245,15.683 0,0 18.292,3.923 15.245,-15.683 z"
           id="path84" />
        <line
           style="fill:#1a1a1a;stroke:#1a1a1a;fill-opacity:1;stroke-opacity:1"
           x1="64"
           y1="95.064003"
           x2="64"
           y2="103.229"
           id="line86" />
        <linearGradient
           id="linearGradient3223"
           gradientUnits="userSpaceOnUse"
           x1="-368.58981"
           y1="846.97272"
           x2="-354.23831"
           y2="846.97272"
           gradientTransform="translate(412.6201,-813.9922)">
          <stop
             offset="0"
             style="stop-color:#9A9A9A"
             id="stop3225" />
          <stop
             offset="1"
             style="stop-color:#DEDEDE"
             id="stop3227" />
        </linearGradient>
        <path
           style="fill:#1a1a1a;fill-opacity:1"
           inkscape:connector-curvature="0"
           d="m 48.336,21.335 c -1.612,0.896 -4.306,2.883 -4.306,2.883 L 58.382,47.021 53.187,18.942 c 0,0 -3.121,1.432 -4.851,2.393 z"
           id="path93" />
        <linearGradient
           id="linearGradient3230"
           gradientUnits="userSpaceOnUse"
           x1="-356.67191"
           y1="844.71582"
           x2="-347.21481"
           y2="844.71582"
           gradientTransform="translate(412.6201,-813.9922)">
          <stop
             offset="0"
             style="stop-color:#9A9A9A"
             id="stop3232" />
          <stop
             offset="1"
             style="stop-color:#DEDEDE"
             id="stop3234" />
        </linearGradient>
        <path
           style="fill:#1a1a1a;fill-opacity:1"
           inkscape:connector-curvature="0"
           d="m 61.369,16.875 c -2.844,0.308 -5.42,1.153 -5.42,1.153 l 7.146,26.691 2.311,-27.884 c -0.001,10e-4 -1.193,-0.267 -4.037,0.04 z"
           id="path100" />
        <linearGradient
           id="linearGradient3237"
           gradientUnits="userSpaceOnUse"
           x1="-372.896"
           y1="885.76172"
           x2="-362.9971"
           y2="885.76172"
           gradientTransform="translate(412.6201,-813.9922)">
          <stop
             offset="0"
             style="stop-color:#5F5D5C"
             id="stop3239" />
          <stop
             offset="1"
             style="stop-color:#181500"
             id="stop3241" />
        </linearGradient>
        <circle
           style="fill:#1a1a1a;fill-opacity:1"
           sodipodi:ry="4.9510002"
           sodipodi:rx="4.9510002"
           sodipodi:cy="71.771004"
           sodipodi:cx="44.673"
           cx="44.673"
           cy="71.771004"
           r="4.9510002"
           id="circle107" />
        <linearGradient
           id="linearGradient3244"
           gradientUnits="userSpaceOnUse"
           x1="-334.31149"
           y1="885.76172"
           x2="-324.40921"
           y2="885.76172"
           gradientTransform="translate(412.6201,-813.9922)">
          <stop
             offset="0"
             style="stop-color:#5F5D5C"
             id="stop3246" />
          <stop
             offset="1"
             style="stop-color:#181500"
             id="stop3248" />
        </linearGradient>
        <circle
           style="fill:#1a1a1a;fill-opacity:1"
           sodipodi:ry="4.9510002"
           sodipodi:rx="4.9510002"
           sodipodi:cy="71.771004"
           sodipodi:cx="83.259003"
           cx="83.259003"
           cy="71.771004"
           r="4.9510002"
           id="circle114" />
        <path
           style="fill:#1a1a1a;fill-opacity:1"
           inkscape:connector-curvature="0"
           d="m 34.086,64.614 -0.893,0.236 -0.142,0.908 c -1.007,6.472 0.104,11.278 3.295,14.296 5.047,4.766 13.298,3.065 13.646,2.992 l 0.906,-0.192 0.183,-0.905 C 52.514,75.087 51.615,70.068 48.417,67.037 43.322,62.222 34.463,64.515 34.086,64.614 z m 12.39,4.489 c 1.623,1.543 2.44,3.894 2.44,7.032 0,1.284 -0.171,2.737 -0.449,4.286 -2.067,0.256 -7.086,0.505 -10.183,-2.434 -1.836,-1.739 -2.761,-4.384 -2.761,-7.888 0,-0.903 0.123,-1.922 0.249,-2.945 2.14,-0.391 7.567,-1.026 10.704,1.949 z"
           id="path116" />
        <path
           style="fill:#1a1a1a;fill-opacity:1"
           inkscape:connector-curvature="0"
           d="m 79.581,67.037 c -3.201,3.031 -4.098,8.048 -2.664,14.915 l 0.186,0.902 0.902,0.192 c 0.348,0.075 8.6,1.777 13.646,-2.991 3.194,-3.016 4.303,-7.825 3.295,-14.293 l -0.142,-0.91 -0.894,-0.238 c -0.371,-0.099 -9.235,-2.392 -14.329,2.423 z m -0.498,9.094 c 0,-3.131 0.816,-5.487 2.439,-7.03 3.137,-2.977 8.566,-2.34 10.706,-1.948 0.123,1.021 0.245,2.044 0.245,2.945 0,3.504 -0.924,6.15 -2.758,7.888 -3.1,2.935 -8.115,2.689 -10.186,2.434 -0.272,-1.548 -0.446,-3.003 -0.446,-4.289 z"
           id="path118" />
        <g
           id="g120"
           style="fill:#1a1a1a;fill-opacity:1">
          <path
             style="fill:#1a1a1a;fill-opacity:1"
             inkscape:connector-curvature="0"
             d="m 61.447,97.878 c 1.404,1.677 3.7,1.677 5.101,0 L 72.9,90.282 c 0.246,-0.298 0.438,-0.579 0.568,-0.852 -2.842,-0.854 -6.055,-1.338 -9.464,-1.338 -3.409,0 -6.628,0.484 -9.466,1.338 0.133,0.272 0.315,0.558 0.565,0.852 l 6.344,7.596 z"
             id="path122" />
        </g>
      </g>
    </g>
    <path
       style="fill:#ffffff;fill-opacity:1;stroke:none"
       d="m 88.463508,1026.5814 4.051133,0 0,-11.8227 7.455035,0.01 c 6.098894,-1.0318 7.754764,-5.162 7.422964,-9.2337 0.0195,-4.4041 -2.65022,-7.75581 -8.710667,-8.30141 l -10.113733,0.058 z"
       id="path4176"
       inkscape:connector-curvature="0"
       sodipodi:nodetypes="cccccccc" />
    <path
       style="fill:url(#linearGradient4266);fill-opacity:1;stroke:none"
       d="m 92.514643,1000.4342 0,10.9546 5.66332,0 c 4.161377,-0.3721 5.057037,-3.0591 5.043257,-5.5807 0.0138,-2.7145 -1.21259,-4.933 -5.043257,-5.4153 z"
       id="path4178"
       inkscape:connector-curvature="0"
       sodipodi:nodetypes="cccccc" />
    <path
       style="fill:#ffffff;fill-opacity:1;stroke:none"
       d="m 115.05103,1026.7563 -3.79996,0 0.11692,-21.9228 3.62457,0 z"
       id="path4180"
       inkscape:connector-curvature="0" />
    <path
       style="fill:#ffffff;stroke:none;stroke-width:1px;stroke-linecap:butt;stroke-linejoin:miter;stroke-opacity:1;fill-opacity:1"
       d="m 111.66029,28.554422 3.62457,0 0,-4.559949 -3.68303,0 z"
       id="path4182"
       inkscape:connector-curvature="0"
       transform="translate(0,972.36215)" />
    <path
       style="fill:#ffffff;fill-opacity:1;stroke:none"
       d="m 137.09077,1008.9842 0,-3.5661 c -2.49433,-0.9939 -4.98866,-1.2862 -7.48299,-1.2277 -6.13839,0.1949 -7.7753,3.4297 -7.89222,5.8461 -0.27282,3.7804 1.67588,5.924 6.19685,6.7814 4.50149,1.0134 6.48916,1.3251 6.66454,4.0923 -0.75999,2.5918 -1.51998,2.962 -5.67071,3.2738 -3.05945,-0.1754 -4.94969,-0.9354 -7.42453,-2.1046 l 0.0585,3.7415 c 2.72818,1.0718 4.40406,1.1498 6.95685,1.4616 5.94352,0.2143 9.49015,-2.6113 9.58758,-5.4954 0.50666,-3.4882 -0.4482,-6.3917 -6.54762,-7.6584 -3.11791,-0.7989 -6.23582,-0.8964 -6.37223,-3.7999 0.87039,-2.668 2.29946,-2.8061 5.02763,-3.1569 2.29945,0.078 4.5989,0.5066 6.89835,1.8123 z"
       id="path4184"
       inkscape:connector-curvature="0"
       sodipodi:nodetypes="ccccccccccccccc" />
    <path
       style="fill:#ffffff;stroke:none;stroke-width:1px;stroke-linecap:butt;stroke-linejoin:miter;stroke-opacity:1;fill-opacity:1"
       d="m 173.04124,54.453062 0,-3.555076 -14.30298,0.08268 0.0827,-25.877643 -3.96845,0 0.0827,29.267367 z"
       id="path4186"
       inkscape:connector-curvature="0"
       transform="translate(0,972.36215)" />
    <path
       style="fill:#ffffff;fill-opacity:1;stroke:none"
       d="m 206.24869,1026.6486 -0.0827,-15.4604 c 0.19291,-3.1417 -2.75587,-7.2755 -7.85424,-7.1929 -3.27949,0 -6.64165,2.1496 -6.86212,4.2165 l 0,-3.4724 -3.80311,0 0.0827,21.9092 3.88578,0.083 -0.0827,-13.7243 c 0,-3.4172 3.30705,-5.5185 6.20071,-5.7115 2.97634,0.057 4.87789,1.9337 4.71254,5.3808 l 0.0827,13.807 z"
       id="path4188"
       inkscape:connector-curvature="0"
       sodipodi:nodetypes="ccccccccccccc" />
    <path
       style="fill:#ffffff;stroke:none;stroke-width:1px;stroke-linecap:butt;stroke-linejoin:miter;stroke-opacity:1;fill-opacity:1"
       d="m 236.86724,32.461199 7.89558,10.37586 -8.55699,11.574665 4.29917,-0.04134 6.32472,-8.515647 6.36607,8.515647 4.3405,0.08268 -8.39163,-11.367974 7.93691,-10.623889 -4.25782,0 -5.82868,7.854237 -5.78733,-7.895575 z"
       id="path4190"
       inkscape:connector-curvature="0"
       transform="translate(0,972.36215)" />
    <path
       style="fill:#ffffff;fill-opacity:1;stroke:none"
       d="m 212.61632,1005.0643 0.083,15.4604 c -0.1929,3.1417 2.7558,7.2755 7.8542,7.1929 3.2795,0 6.6417,-2.1496 6.8621,-4.2165 l 0,3.4724 3.8031,0 -0.083,-21.9092 -3.8857,-0.083 0.083,13.7243 c 0,3.4172 -3.3071,5.5185 -6.2007,5.7115 -2.9764,-0.057 -4.8779,-1.9337 -4.7126,-5.3808 l -0.083,-13.807 z"
       id="path4188-8"
       inkscape:connector-curvature="0"
       sodipodi:nodetypes="ccccccccccccc" />
  </g>
</svg>
