<?xml version="1.0" encoding="UTF-8" standalone="no"?>
<!-- Created with Inkscape (http://www.inkscape.org/) -->

<svg
   xmlns:dc="http://purl.org/dc/elements/1.1/"
   xmlns:cc="http://creativecommons.org/ns#"
   xmlns:rdf="http://www.w3.org/1999/02/22-rdf-syntax-ns#"
   xmlns:svg="http://www.w3.org/2000/svg"
   xmlns="http://www.w3.org/2000/svg"
   xmlns:xlink="http://www.w3.org/1999/xlink"
   xmlns:sodipodi="http://sodipodi.sourceforge.net/DTD/sodipodi-0.dtd"
   xmlns:inkscape="http://www.inkscape.org/namespaces/inkscape"
   version="1.0"
   width="128"
   height="128"
   id="svg1"
   inkscape:version="0.91 r13725"
   sodipodi:docname="flash.svg"
   inkscape:export-filename="flash512.png"
   inkscape:export-xdpi="360"
   inkscape:export-ydpi="360">
  <metadata
     id="metadata99">
    <rdf:RDF>
      <cc:Work
         rdf:about="">
        <dc:format>image/svg+xml</dc:format>
        <dc:type
           rdf:resource="http://purl.org/dc/dcmitype/StillImage" />
        <dc:title></dc:title>
      </cc:Work>
    </rdf:RDF>
  </metadata>
  <sodipodi:namedview
     pagecolor="#ffffff"
     bordercolor="#666666"
     borderopacity="1"
     objecttolerance="10"
     gridtolerance="10"
     guidetolerance="10"
     inkscape:pageopacity="0"
     inkscape:pageshadow="2"
     inkscape:window-width="1366"
     inkscape:window-height="725"
     id="namedview97"
     showgrid="false"
     inkscape:zoom="1.9196691"
     inkscape:cx="-31.055798"
     inkscape:cy="26.35463"
     inkscape:window-x="-5"
     inkscape:window-y="-10"
     inkscape:window-maximized="1"
     inkscape:current-layer="svg1">
    <inkscape:grid
       type="xygrid"
       id="grid4227"
       empspacing="8" />
  </sodipodi:namedview>
  <defs
     id="defs2">
    <linearGradient
       x1="68.715599"
       y1="35.413502"
       x2="83.1838"
       y2="57.513901"
       id="linearGradient5055"
       gradientUnits="userSpaceOnUse">
      <stop
         id="stop5057"
         style="stop-color:#5c5c5c;stop-opacity:1"
         offset="0" />
      <stop
         id="stop5059"
         style="stop-color:#838383;stop-opacity:1"
         offset="1" />
    </linearGradient>
    <linearGradient
       gradientUnits="userSpaceOnUse"
       id="linearGradient4239"
       y2="57.513901"
       x2="83.1838"
       y1="35.413502"
       x1="68.715599">
      <stop
         offset="0"
         style="stop-color:#d6d6d6;stop-opacity:1"
         id="stop4241" />
      <stop
         offset="1"
         style="stop-color:#b8b8b8;stop-opacity:1"
         id="stop4243" />
    </linearGradient>
    <linearGradient
       inkscape:collect="always"
       xlink:href="#linearGradient4239"
       id="linearGradient4237"
       x1="56"
       y1="128"
       x2="56"
       y2="96"
       gradientUnits="userSpaceOnUse"
       gradientTransform="translate(0,-11.646462)" />
    <linearGradient
       inkscape:collect="always"
       id="linearGradient4230"
       gradientTransform="scale(0.70086531,1.4268077)"
       x1="35.249395"
       y1="7.5986394"
       x2="42.80423"
       y2="7.5986394"
       gradientUnits="userSpaceOnUse">
      <stop
         style="stop-color:#292c2f;stop-opacity:1"
         offset="0"
         id="stop4232" />
      <stop
         style="stop-color:#000000;stop-opacity:0;"
         offset="1"
         id="stop4234" />
    </linearGradient>
    <linearGradient
       inkscape:collect="always"
       xlink:href="#linearGradient4230"
       id="linearGradient4985"
       x1="48"
       y1="16"
       x2="96"
       y2="64"
       gradientUnits="userSpaceOnUse"
       gradientTransform="translate(0,-3.6464617)" />
    <linearGradient
       inkscape:collect="always"
       xlink:href="#linearGradient4230"
       id="linearGradient4993"
       x1="56"
       y1="72"
       x2="56"
       y2="120"
       gradientUnits="userSpaceOnUse"
       gradientTransform="translate(0,-11.646462)" />
    <linearGradient
       inkscape:collect="always"
       xlink:href="#linearGradient4230"
       id="linearGradient4993-7"
       x1="56"
       y1="72"
       x2="56"
       y2="120"
       gradientUnits="userSpaceOnUse"
       gradientTransform="translate(24,-11.646462)" />
    <linearGradient
       inkscape:collect="always"
       xlink:href="#linearGradient4230"
       id="linearGradient5027"
       x1="32"
       y1="56"
       x2="104"
       y2="128"
       gradientUnits="userSpaceOnUse"
       gradientTransform="translate(0,-11.646462)" />
    <linearGradient
       inkscape:collect="always"
       xlink:href="#linearGradient5055"
       id="linearGradient5053"
       x1="64"
       y1="120"
       x2="64"
       y2="128"
       gradientUnits="userSpaceOnUse"
       gradientTransform="translate(0,-3.6464617)" />
    <linearGradient
       inkscape:collect="always"
       xlink:href="#linearGradient4230"
       id="linearGradient5027-2"
       x1="31.719809"
       y1="-8.2801905"
       x2="104"
       y2="64"
       gradientUnits="userSpaceOnUse"
       gradientTransform="translate(0,-11.646462)" />
    <linearGradient
       inkscape:collect="always"
       xlink:href="#linearGradient4230"
       id="linearGradient5027-2-3"
       x1="31.552965"
       y1="111.55296"
       x2="72"
       y2="152"
       gradientUnits="userSpaceOnUse"
       gradientTransform="translate(0,-11.646462)" />
  </defs>
  <path
     style="opacity:0.2;fill:url(#linearGradient5027-2);fill-opacity:1;fill-rule:evenodd;stroke:none"
     d="m 94,12.353538 26,26 0,78.000002 -36,-8 -24,-24.000002 16,-8 -24,-24 z"
     id="path5019-9"
     inkscape:connector-curvature="0"
     sodipodi:nodetypes="cccccccc" />
  <rect
     style="color:#000000;fill:#1a1a1a;fill-opacity:1;fill-rule:nonzero;stroke:none;stroke-width:0;marker:none;visibility:visible;display:inline;overflow:visible;enable-background:accumulate"
     id="rect5085"
     width="64"
     height="16"
     x="32"
     y="76.353539" />
  <path
     style="opacity:0.2;fill:url(#linearGradient5027-2-3);fill-opacity:1;fill-rule:evenodd;stroke:none"
     d="m 54,72.353538 18,34.000002 16,18 -24,24 -24,-24 8,-16 -16,-16.000002 z"
     id="path5019-9-6"
     inkscape:connector-curvature="0"
     sodipodi:nodetypes="cccccccc" />
  <rect
     style="color:#000000;fill:url(#linearGradient4237);fill-opacity:1;fill-rule:nonzero;stroke:none;stroke-width:0;marker:none;visibility:visible;display:inline;overflow:visible;enable-background:accumulate"
     id="rect4229"
     width="48"
     height="40"
     x="40"
     y="84.353539" />
  <path
     style="opacity:0.2;fill:url(#linearGradient5027);fill-opacity:1;fill-rule:evenodd;stroke:none"
     d="m 88,84.353538 26,26.000002 6,6 -56,0 -32,-32.000002 z"
     id="path5019"
     inkscape:connector-curvature="0"
     sodipodi:nodetypes="cccccc" />
  <rect
     style="color:#000000;fill:url(#linearGradient4993);fill-opacity:1;fill-rule:nonzero;stroke:none;stroke-width:0;marker:none;visibility:visible;display:inline;overflow:visible;enable-background:accumulate"
     id="rect4245"
     width="8"
     height="8"
     x="48"
     y="92.353539" />
  <path
     style="color:#000000;fill:#1a1a1a;fill-opacity:1;fill-rule:nonzero;stroke:none;stroke-width:0;marker:none;visibility:visible;display:inline;overflow:visible;enable-background:accumulate"
     d="m 48,4.3535383 c -8.864,0 -16,7.1359997 -16,15.9999997 l 0,24 0,32 0,8 16,0 32,0 16,0 0,-8 0,-32 0,-24 C 96,11.489538 88.864,4.3535383 80,4.3535383 z"
     id="rect4249"
     inkscape:connector-curvature="0"
     sodipodi:nodetypes="ssccccccccsss" />
  <path
     style="opacity:0.2;fill:url(#linearGradient4985);fill-opacity:1;fill-rule:evenodd;stroke:none"
     d="m 64,12.353538 32,32 0,64.000002 -32,-32.000002 -0.810381,-18 -12,-12 6.810381,-6 6,6 0,-34"
     id="path4977"
     inkscape:connector-curvature="0"
     sodipodi:nodetypes="ccccccccc" />
  <path
     style="font-size:12.5px;font-style:normal;font-variant:normal;font-weight:bold;font-stretch:normal;line-height:125%;letter-spacing:0px;word-spacing:0px;fill:#3daee9;fill-opacity:1;stroke:none;font-family:Clear Sans;-inkscape-font-specification:Clear Sans Bold"
     d="m 64.000028,12.353539 -4.8,9.6 3.025,0 0,33.849978 -5.47498,-7.07497 c -0.33766,-0.42128 -0.522016,-0.9466 -0.631264,-1.49376 1.855839,-0.711723 3.081048,-2.493623 3.081244,-4.48125 0,-2.650958 -2.149028,-4.799988 -4.799996,-4.8 -2.65097,1e-5 -4.8,2.14904 -4.8,4.8 5.58e-4,2.070105 1.328212,3.906646 3.29376,4.55625 0.20288,1.3128 0.821056,2.5962 1.662496,3.46874 0.0256,0.0224 6.93123,9.50627 6.93123,9.50627 0.0957,0.11936 0.15456,0.2736 0.23744,0.40624 -3.39325,1.006514 -5.721803,4.123121 -5.72499,7.6625 0,4.418278 3.581722,8 8,8 4.418278,0 8,-3.581722 8,-8 -4.12e-4,-3.80121 -2.67559,-7.077258 -6.4,-7.8375 l 0,-7.225 c 0.0192,-0.80832 0.4487,-1.59968 0.93126,-2.2 0,0 6.91824,-9.17683 6.94375,-9.2 0.94105,-0.9759 1.58557,-2.46665 1.68749,-3.9375 l 3.2375,0 0,-9.599998 -9.6,0 0,9.599998 3.11875,0 c -0.1104,0.6935 -0.45123,1.36685 -0.86873,1.88749 l -5.45002,7.075 0,-24.962488 3.2,0 -4.8,-9.6 z"
     id="path1334-7"
     inkscape:connector-curvature="0"
     sodipodi:nodetypes="cccccccsccccccsccccccccccccccccc" />
  <rect
     style="color:#000000;fill:url(#linearGradient4993-7);fill-opacity:1;fill-rule:nonzero;stroke:none;stroke-width:0;marker:none;visibility:visible;display:inline;overflow:visible;enable-background:accumulate"
     id="rect4245-5"
     width="8"
     height="8"
     x="72"
     y="92.353539" />
  <path
     style="opacity:0.6;fill:url(#linearGradient5053);fill-opacity:1;fill-rule:evenodd;stroke:none"
     d="m 40,116.35354 48,0 0,8 -48,0 0,-8"
     id="path5045"
     inkscape:connector-curvature="0" />
</svg>
